<svg id="Layer_1" data-name="Layer 1" xmlns="http://www.w3.org/2000/svg" xmlns:xlink="http://www.w3.org/1999/xlink" viewBox="0 0 1123.31 356.85"><defs><radialGradient id="radial-gradient" cx="2954.73" cy="2597.1" r="65.68" gradientTransform="translate(-3746.94 373.99) rotate(-45)" gradientUnits="userSpaceOnUse"><stop offset="0.42" stop-color="#381e43"/><stop offset="0.61" stop-color="#5d02c1"/><stop offset="0.83" stop-color="#690eea"/><stop offset="1" stop-color="#b50eea"/></radialGradient><radialGradient id="radial-gradient-2" cx="2974.46" cy="2637.61" r="64.24" xlink:href="#radial-gradient"/><radialGradient id="radial-gradient-3" cx="2914.22" cy="2577.38" r="64.24" xlink:href="#radial-gradient"/><radialGradient id="radial-gradient-4" cx="2873.71" cy="2597.11" r="65.68" xlink:href="#radial-gradient"/><radialGradient id="radial-gradient-5" cx="2854" cy="2637.62" r="64.24" xlink:href="#radial-gradient"/><radialGradient id="radial-gradient-6" cx="2873.72" cy="2678.13" r="65.68" xlink:href="#radial-gradient"/><radialGradient id="radial-gradient-7" cx="2914.23" cy="2697.85" r="64.24" xlink:href="#radial-gradient"/><radialGradient id="radial-gradient-8" cx="2954.75" cy="2678.13" r="65.66" xlink:href="#radial-gradient"/><radialGradient id="radial-gradient-9" cx="2939.04" cy="2612.8" r="43.5" gradientTransform="translate(-3746.94 373.99) rotate(-45)" gradientUnits="userSpaceOnUse"><stop offset="0.42" stop-color="#381e43"/><stop offset="0.61" stop-color="#5d02c1"/><stop offset="0.83" stop-color="#690eea"/><stop offset="1" stop-color="#b50eea"/></radialGradient><radialGradient id="radial-gradient-10" cx="2954.13" cy="2637.61" r="41.17" xlink:href="#radial-gradient-9"/><radialGradient id="radial-gradient-11" cx="2939.05" cy="2662.44" r="43.5" xlink:href="#radial-gradient-9"/><radialGradient id="radial-gradient-12" cx="2914.23" cy="2677.51" r="41.17" xlink:href="#radial-gradient-9"/><radialGradient id="radial-gradient-13" cx="2889.42" cy="2662.42" r="43.5" xlink:href="#radial-gradient-9"/><radialGradient id="radial-gradient-14" cx="2874.33" cy="2637.62" r="41.17" xlink:href="#radial-gradient-9"/><radialGradient id="radial-gradient-15" cx="2889.4" cy="2612.8" r="43.48" xlink:href="#radial-gradient-9"/><radialGradient id="radial-gradient-16" cx="2914.22" cy="2597.72" r="41.17" xlink:href="#radial-gradient-9"/><radialGradient id="radial-gradient-17" cx="-5968.37" cy="3122.11" r="16.19" gradientTransform="translate(3287.93 6131.97) rotate(90)" gradientUnits="userSpaceOnUse"><stop offset="0.17" stop-color="#381e43"/><stop offset="0.48" stop-color="#5d02c1"/><stop offset="0.79" stop-color="#690eea"/><stop offset="1" stop-color="#b50eea"/></radialGradient><radialGradient id="radial-gradient-18" cx="-3509.15" cy="386.69" r="16.19" gradientTransform="translate(2913.94 2385.03) rotate(45)" xlink:href="#radial-gradient-17"/><radialGradient id="radial-gradient-19" cx="164.01" cy="191.38" r="16.19" gradientTransform="matrix(1, 0, 0, 1, 0, 0)" xlink:href="#radial-gradient-17"/><radialGradient id="radial-gradient-20" cx="2899.43" cy="2650.6" r="16.19" gradientTransform="translate(-3746.94 373.99) rotate(-45)" xlink:href="#radial-gradient-17"/><radialGradient id="radial-gradient-21" cx="3094.74" cy="6323.76" r="16.19" gradientTransform="translate(-6131.97 3287.93) rotate(-90)" xlink:href="#radial-gradient-17"/><radialGradient id="radial-gradient-22" cx="635.52" cy="9059.19" r="16.19" gradientTransform="translate(-5757.98 7034.87) rotate(-135)" xlink:href="#radial-gradient-17"/><radialGradient id="radial-gradient-23" cx="-3037.64" cy="9254.49" r="16.19" gradientTransform="translate(-2844.04 9419.9) rotate(180)" xlink:href="#radial-gradient-17"/><radialGradient id="radial-gradient-24" cx="-5773.06" cy="6795.27" r="16.19" gradientTransform="translate(902.9 9045.91) rotate(135)" xlink:href="#radial-gradient-17"/></defs><title>Primary_Horizontal</title><path d="M477,179.09c0,24.33-4.87,38.09-15.78,45.64v.67l18.29-.67v13.09H418.25c-42.78,0-58.39-13.77-58.39-58.73S375.47,119,418.42,119C461.7,119,477,134.14,477,179.09Zm-58.55,46c33.38,0,42.27-10.4,42.27-46,0-35.4-8.89-47.3-42.27-47.3s-42.28,11.9-42.28,47.3C376.14,214.66,385,225.06,418.42,225.06Z" fill="#381e43"/><path d="M507,185.8h55v12.76H507Z" fill="#381e43"/><path d="M640.21,237.82c-39.25,0-49-26.18-49-58.89s9.56-58.56,49.83-58.56h45.46v12.76H646.25c-29.36,0-38.75,13.92-38.75,45.8s9.06,46.13,37.91,46.13H688.2v12.76Z" fill="#381e43"/><path d="M757.32,237.82V133.13H709.84V120.37H820.4v12.76H772.92V237.82Z" fill="#381e43"/><path d="M845.41,138.16c0-12.59,6.2-17.79,17.28-17.79H917c21.64,0,28.52,13.77,28.52,35.57,0,22.49-6.38,37.42-26.67,37.42h-19v.83l48.15,43.63H927.27l-45-41.28c-2.17-2-4.36-4.52-4.36-7.37v-2.69c0-3.53,2.52-5.88,7-5.88h28.68c14.26,0,15.61-10.4,15.61-24.66,0-14.59-2.35-22.81-18.12-22.81H869.4c-5.38,0-8.39,1.67-8.39,8.05v96.64h-15.6Z" fill="#381e43"/><path d="M994.72,237.82c-8.56,0-14.93-3.36-14.93-14.09V120.37h15.6V218c0,5.2,1.68,7.05,7.38,7.05h65.1v12.76Z" fill="#381e43"/><path d="M178.8,55.42A65.71,65.71,0,0,0,151.67,181a27.33,27.33,0,0,1,3-15.24A51.3,51.3,0,0,1,143,157a50.71,50.71,0,1,1,60,8.73,27.19,27.19,0,0,1,3,15.22,65.79,65.79,0,0,0,38.56-59.8,65.71,65.71,0,0,0-65.7-65.69Z" opacity="0.7" fill="url(#radial-gradient)"/><path d="M172.86,91.43a65.76,65.76,0,0,0-15,69.56,24.62,24.62,0,0,1,1.7-1.86,27.08,27.08,0,0,1,11.2-6.77,50.69,50.69,0,1,1,34.1,34.1,27.26,27.26,0,0,1-6.76,11.21c-.6.6-1.22,1.16-1.86,1.69A65.68,65.68,0,1,0,172.86,91.43Z" opacity="0.7" fill="url(#radial-gradient-2)"/><path d="M91.84,91.44A65.68,65.68,0,0,0,161.4,199.37c-.64-.54-1.26-1.1-1.87-1.7a27.29,27.29,0,0,1-6.76-11.2,50.7,50.7,0,1,1,34.1-34.11,27.26,27.26,0,0,1,11.21,6.76c.6.61,1.16,1.23,1.69,1.87A65.68,65.68,0,0,0,91.84,91.44Z" opacity="0.7" fill="url(#radial-gradient-3)"/><path d="M166.13,202.53a51.3,51.3,0,0,1-8.76,11.72,50.7,50.7,0,1,1,8.73-60,27.27,27.27,0,0,1,15.22-3,65.56,65.56,0,1,0,.05,54.27A27.24,27.24,0,0,1,166.13,202.53Z" opacity="0.7" fill="url(#radial-gradient-4)"/><path d="M198.08,197.67a27.29,27.29,0,0,1-11.2,6.76,50.7,50.7,0,1,1-34.11-34.1,27.08,27.08,0,0,1,6.77-11.2c.6-.6,1.22-1.17,1.86-1.7a65.69,65.69,0,1,0,38.38,38.37C199.24,196.44,198.68,197.07,198.08,197.67Z" opacity="0.7" fill="url(#radial-gradient-5)"/><path d="M202.93,191.1a50.55,50.55,0,1,1-48.25,0,27.33,27.33,0,0,1-3-15.24,65.75,65.75,0,1,0,54.27,0A27.27,27.27,0,0,1,202.93,191.1Z" opacity="0.7" fill="url(#radial-gradient-6)"/><path d="M196.21,157.43c.64.53,1.27,1.09,1.87,1.69a27.26,27.26,0,0,1,6.76,11.21,50.69,50.69,0,1,1-34.1,34.1,27.26,27.26,0,0,1-11.21-6.76c-.6-.6-1.16-1.22-1.69-1.86a65.69,65.69,0,1,0,38.37-38.38Z" opacity="0.7" fill="url(#radial-gradient-7)"/><path d="M236.09,112.7a65.76,65.76,0,0,0-59.8,38.56,27.29,27.29,0,0,1,15.22,3,51.13,51.13,0,0,1,8.75-11.72,50.69,50.69,0,1,1-8.74,59.95,27.22,27.22,0,0,1-15.23,3,65.69,65.69,0,1,0,59.8-92.83Z" opacity="0.7" fill="url(#radial-gradient-8)"/><path d="M178.8,99.8a43.54,43.54,0,0,0-43.5,43.5h0A43.19,43.19,0,0,0,148,174.06a44,44,0,0,0,3.54,3.17,27.2,27.2,0,0,1,5.58-15.39,28.25,28.25,0,0,1-6.86-18.54h0a28.5,28.5,0,1,1,50.15,18.54A27.14,27.14,0,0,1,206,177.22a40.45,40.45,0,0,0,3.53-3.16A43.5,43.5,0,0,0,178.8,99.8Z" opacity="0.7" fill="url(#radial-gradient-9)"/><path d="M172.86,122.82A43.4,43.4,0,0,0,160.4,158.3a27.16,27.16,0,0,1,14.82-6.92A28.5,28.5,0,1,1,205.82,182a27.18,27.18,0,0,1-6.91,14.83,43.49,43.49,0,1,0-26-74Z" opacity="0.7" fill="url(#radial-gradient-10)"/><path d="M213.9,134.89h0A43.43,43.43,0,0,0,180,151.17a27.19,27.19,0,0,1,15.37,5.59,28.49,28.49,0,1,1,0,43.28A27.2,27.2,0,0,1,180,205.62a44,44,0,0,0,3.16,3.53,43.5,43.5,0,1,0,30.76-74.26Z" opacity="0.7" fill="url(#radial-gradient-11)"/><path d="M198.9,160a27.09,27.09,0,0,1,6.92,14.82,28.5,28.5,0,1,1-30.59,30.6,27.15,27.15,0,0,1-14.82-6.91A43.5,43.5,0,1,0,198.9,160Z" opacity="0.7" fill="url(#radial-gradient-12)"/><path d="M200.45,195a28.5,28.5,0,1,1-43.28,0,27.14,27.14,0,0,1-5.59-15.39q-1.83,1.49-3.53,3.16a43.49,43.49,0,1,0,74.27,30.76h0a43.22,43.22,0,0,0-12.75-30.76,44,44,0,0,0-3.54-3.17A27.12,27.12,0,0,1,200.45,195Z" opacity="0.7" fill="url(#radial-gradient-13)"/><path d="M182.39,205.41a28.5,28.5,0,1,1-30.6-30.59A27.15,27.15,0,0,1,158.7,160a43.51,43.51,0,1,0,38.51,38.49A27.06,27.06,0,0,1,182.39,205.41Z" opacity="0.7" fill="url(#radial-gradient-14)"/><path d="M162.24,200a28.38,28.38,0,0,1-18.53,6.88h0a28.51,28.51,0,1,1,18.52-50.14,27.16,27.16,0,0,1,15.37-5.6,43.49,43.49,0,1,0-33.89,70.74h0a43.38,43.38,0,0,0,30.75-12.76,45.87,45.87,0,0,0,3.15-3.53A27.08,27.08,0,0,1,162.24,200Z" opacity="0.7" fill="url(#radial-gradient-15)"/><path d="M123.23,122.82a43.47,43.47,0,0,0,35.48,74A27.13,27.13,0,0,1,151.79,182a28.5,28.5,0,1,1,30.59-30.6,27.12,27.12,0,0,1,14.83,6.92,43.48,43.48,0,0,0-74-35.48Z" opacity="0.7" fill="url(#radial-gradient-16)"/><path d="M151.55,178.4a27.25,27.25,0,0,1,27.26-27.26c.68,0,1.36,0,2,.09a21.23,21.23,0,0,0-29.2,29.23C151.59,179.78,151.55,179.09,151.55,178.4Z" opacity="0.7" fill="url(#radial-gradient-17)"/><g opacity="0.7"><path d="M159.54,197.67a27.24,27.24,0,0,1,0-38.54c.48-.49,1-.94,1.49-1.38a21.23,21.23,0,0,0,0,41.32C160.54,198.62,160,198.16,159.54,197.67Z" fill="url(#radial-gradient-18)"/></g><g opacity="0.7"><path d="M178.81,205.65a27.25,27.25,0,0,1-27.26-27.25c0-.69,0-1.37.09-2a21.24,21.24,0,0,0,29.23,29.21C180.19,205.62,179.5,205.65,178.81,205.65Z" fill="url(#radial-gradient-19)"/></g><g opacity="0.7"><path d="M198.08,197.67a27.27,27.27,0,0,1-38.55,0c-.48-.49-.93-1-1.38-1.5a21.24,21.24,0,0,0,41.33,0C199,196.67,198.57,197.18,198.08,197.67Z" fill="url(#radial-gradient-20)"/></g><g opacity="0.7"><path d="M206.06,178.4a27.25,27.25,0,0,1-27.25,27.25c-.69,0-1.37,0-2-.08A21.24,21.24,0,0,0,206,176.34C206,177,206.06,177.7,206.06,178.4Z" fill="url(#radial-gradient-21)"/></g><g opacity="0.7"><path d="M198.08,159.13a27.26,27.26,0,0,1,0,38.54q-.74.72-1.5,1.38a21.23,21.23,0,0,0,0-41.32C197.08,158.17,197.59,158.63,198.08,159.13Z" fill="url(#radial-gradient-22)"/></g><g opacity="0.7"><path d="M178.81,151.14a27.25,27.25,0,0,1,27.25,27.26c0,.68,0,1.36-.08,2a21.23,21.23,0,0,0-29.23-29.2C177.43,151.18,178.11,151.14,178.81,151.14Z" fill="url(#radial-gradient-23)"/></g><g opacity="0.7"><path d="M159.54,159.13a27.24,27.24,0,0,1,38.54,0c.48.48.94,1,1.38,1.49a21.23,21.23,0,0,0-41.32,0C158.58,160.13,159,159.62,159.54,159.13Z" fill="url(#radial-gradient-24)"/></g></svg>